<svg xmlns="http://www.w3.org/2000/svg" xmlns:xlink="http://www.w3.org/1999/xlink" width="32" height="32" viewBox="0 0 32 32">
  <defs>
    <clipPath id="clip-path">
      <path id="Path_193099" data-name="Path 193099" d="M0,.113H24v24H0Zm0,0"/>
    </clipPath>
  </defs>
  <g id="Group_193908" data-name="Group 193908" transform="translate(-91 -1)">
    <rect id="Rectangle_151844" data-name="Rectangle 151844" width="32" height="32" rx="4" transform="translate(91 1)" fill="#323232"/>
    <g id="Git-Icon-1788C" transform="translate(95 4.887)" clip-path="url(#clip-path)">
      <path id="Path_193098" data-name="Path 193098" d="M23.547,11.045,13.068.566a1.546,1.546,0,0,0-2.187,0L8.706,2.743l2.76,2.76A1.835,1.835,0,0,1,13.79,7.843l2.661,2.66a1.838,1.838,0,1,1-1.1,1.037L12.869,9.059v6.529a1.833,1.833,0,1,1-1.513-.054V8.945a1.841,1.841,0,0,1-1-2.412L7.637,3.811.451,11a1.548,1.548,0,0,0,0,2.186L10.93,23.661a1.548,1.548,0,0,0,2.186,0l10.43-10.43a1.548,1.548,0,0,0,0-2.186" transform="translate(0.001 0)" fill="#f03c2e"/>
    </g>
  </g>
</svg>
